<svg width="210" height="47" viewBox="0 0 210 47" fill="none" xmlns="http://www.w3.org/2000/svg">
<g clip-path="url(#clip0_1_55)">
<path d="M41.1769 17.1357H18.6607C18.2179 17.1357 17.8415 17.5121 17.8415 17.9549C17.8415 18.3977 18.2179 18.7741 18.6607 18.7741H40.3577V44.7441H8.01139V20.0803C8.01139 19.6375 7.63502 19.2612 7.19222 19.2612C6.74942 19.2612 6.37305 19.6375 6.37305 20.0803V45.5633C6.37305 46.0061 6.74942 46.3825 7.19222 46.3825H41.1769C41.6197 46.3825 41.996 46.0061 41.996 45.5633V17.9549C41.996 17.5121 41.6197 17.1357 41.1769 17.1357Z" fill="white"/>
<path d="M47.5302 17.2466L24.5933 4.07342C24.3498 3.94058 24.0398 3.91844 23.7963 4.07342L0.416613 17.2466C0.0180956 17.468 -0.114743 17.9772 0.106655 18.3536C0.261634 18.6193 0.527312 18.7743 0.81513 18.7743C0.947969 18.7743 1.08081 18.73 1.21365 18.6636L24.1726 5.73391L46.711 18.6636C47.1095 18.885 47.5966 18.7521 47.818 18.3536C48.0394 17.9772 47.9065 17.468 47.5302 17.2466Z" fill="white"/>
<path d="M7.19222 12.199C7.63502 12.199 8.01139 11.8227 8.01139 11.3799V0.819174C8.01139 0.376377 7.63502 0 7.19222 0C6.74942 0 6.37305 0.376377 6.37305 0.819174V11.3799C6.37305 11.8227 6.72728 12.199 7.19222 12.199Z" fill="white"/>
<path d="M56.9838 29.5786C57.1166 29.6229 57.3159 29.6672 57.5373 29.6893C57.7808 29.7114 58.0687 29.7336 58.4229 29.7336C58.7771 29.7336 59.065 29.7114 59.3085 29.6893C59.5299 29.6672 59.7291 29.6229 59.862 29.5786C59.9948 29.5343 60.1055 29.4679 60.1498 29.4015C60.2162 29.3351 60.2384 29.2465 60.2384 29.1579V12.3095C60.2384 12.221 60.2162 12.1324 60.1498 12.066C60.0834 11.9996 59.9948 11.9331 59.862 11.8889C59.7291 11.8446 59.5299 11.8003 59.3085 11.7782C59.0871 11.756 58.7771 11.7339 58.4229 11.7339C58.0687 11.7339 57.7808 11.756 57.5594 11.7782C57.338 11.8003 57.1388 11.8446 57.0059 11.8889C56.8731 11.9331 56.7624 11.9996 56.696 12.066C56.6296 12.1324 56.6074 12.221 56.6074 12.3095V29.1579C56.6074 29.2465 56.6296 29.3351 56.696 29.4015C56.7624 29.4679 56.851 29.5343 56.9838 29.5786Z" fill="white"/>
<path d="M73.9434 29.7338C74.2755 29.7338 74.5633 29.7117 74.7847 29.6896C75.0061 29.6674 75.1832 29.6231 75.3161 29.5789C75.4489 29.5346 75.5375 29.4682 75.5817 29.4017C75.626 29.3353 75.6703 29.2468 75.6703 29.1582V21.5864C75.6703 20.7008 75.5817 19.9259 75.4268 19.306C75.2718 18.6639 75.0061 18.1104 74.6519 17.6455C74.2976 17.1806 73.8327 16.8042 73.2571 16.5164C72.6814 16.2507 71.973 16.0957 71.1316 16.0957C70.3789 16.0957 69.6261 16.2728 68.9398 16.6492C68.2313 17.0256 67.545 17.5791 66.8587 18.3097V16.8927C66.8587 16.8042 66.8365 16.7156 66.7922 16.6492C66.748 16.5828 66.6594 16.5164 66.5708 16.4721C66.4601 16.4278 66.3052 16.3835 66.128 16.3614C65.9288 16.3392 65.6852 16.3171 65.3974 16.3171C65.1096 16.3171 64.8661 16.3392 64.689 16.3614C64.4897 16.3835 64.3569 16.4278 64.224 16.4721C64.1133 16.5164 64.0248 16.5828 63.9805 16.6492C63.9362 16.7156 63.9141 16.8042 63.9141 16.8927V29.2025C63.9141 29.291 63.9362 29.3796 64.0026 29.446C64.069 29.5124 64.1576 29.5789 64.2904 29.6231C64.4233 29.6674 64.6004 29.7117 64.8218 29.7338C65.0432 29.756 65.331 29.7781 65.6631 29.7781C65.9952 29.7781 66.283 29.756 66.5044 29.7338C66.7258 29.7117 66.9029 29.6674 67.0358 29.6231C67.1686 29.5789 67.2572 29.5124 67.3236 29.446C67.3679 29.3796 67.4122 29.291 67.4122 29.2025V21.0107C67.8992 20.3908 68.3642 19.9259 68.8291 19.5938C69.2719 19.2617 69.7147 19.1067 70.1575 19.1067C70.5117 19.1067 70.8217 19.1731 71.0652 19.306C71.3309 19.4388 71.5302 19.6381 71.7073 19.8816C71.8623 20.1252 71.9951 20.413 72.0837 20.7672C72.1722 21.0993 72.2165 21.5864 72.2165 22.1842V29.2025C72.2165 29.291 72.2386 29.3796 72.3051 29.446C72.3493 29.5124 72.46 29.5789 72.5707 29.6231C72.7036 29.6674 72.8807 29.7117 73.1021 29.7338C73.3235 29.7338 73.6113 29.7338 73.9434 29.7338Z" fill="white"/>
<path d="M84.9019 29.7784C85.1233 29.7341 85.3004 29.6677 85.4775 29.6013C85.6325 29.5348 85.7653 29.4463 85.8539 29.3577C85.9425 29.2692 86.0089 29.1142 86.0532 28.8928C86.0974 28.6714 86.1196 28.3614 86.1196 27.9629C86.1196 27.6972 86.0974 27.498 86.0753 27.3209C86.0532 27.1659 86.031 27.033 86.0089 26.9223C85.9867 26.8338 85.9425 26.7674 85.8982 26.7231C85.8539 26.701 85.7875 26.6788 85.7432 26.6788C85.6768 26.6788 85.6104 26.701 85.5218 26.7231C85.4332 26.7452 85.3447 26.7895 85.234 26.8338C85.1233 26.8781 84.9905 26.9223 84.8355 26.9445C84.6805 26.9666 84.5255 26.9888 84.3484 26.9888C83.7949 26.9888 83.4185 26.8117 83.2193 26.4796C82.9979 26.1475 82.9093 25.6382 82.9093 24.974V19.2177H85.5882C85.7653 19.2177 85.8982 19.107 85.9867 18.8856C86.0753 18.6642 86.1196 18.31 86.1196 17.8007C86.1196 17.5351 86.0974 17.3137 86.0753 17.1144C86.0532 16.9373 86.0089 16.7823 85.9646 16.6716C85.9203 16.5609 85.8539 16.4945 85.7875 16.4502C85.7211 16.4059 85.6325 16.3838 85.5439 16.3838H82.865V13.6606C82.865 13.572 82.8429 13.4835 82.7765 13.4171C82.7322 13.3506 82.6215 13.2842 82.5108 13.2399C82.378 13.1957 82.2008 13.1514 81.9794 13.1292C81.758 13.1071 81.4702 13.085 81.1381 13.085C80.806 13.085 80.5182 13.1071 80.2968 13.1292C80.0754 13.1514 79.8983 13.1957 79.7654 13.2399C79.6326 13.2842 79.544 13.3506 79.4998 13.4171C79.4555 13.4835 79.4333 13.572 79.4333 13.6606V16.4059H77.9721C77.8836 16.4059 77.795 16.4281 77.7286 16.4724C77.6622 16.5166 77.5957 16.6052 77.5515 16.6938C77.5072 16.8045 77.4629 16.9373 77.4408 17.1365C77.4186 17.3137 77.3965 17.5351 77.3965 17.8229C77.3965 18.3321 77.4408 18.6863 77.5293 18.9077C77.6179 19.1291 77.7507 19.2398 77.9278 19.2398H79.4112V25.5497C79.4112 26.3024 79.4998 26.9666 79.6547 27.498C79.8097 28.0515 80.0533 28.5164 80.3854 28.8707C80.7175 29.2249 81.1381 29.5127 81.6473 29.6677C82.1565 29.8448 82.7543 29.9334 83.4407 29.9334C83.7063 29.9334 83.9499 29.9112 84.2156 29.8891C84.437 29.8669 84.6805 29.8227 84.9019 29.7784Z" fill="white"/>
<path d="M98.2736 17.8226C97.8087 17.2913 97.2109 16.8706 96.4803 16.5606C95.7497 16.2507 94.8641 16.0957 93.8457 16.0957C92.8715 16.0957 91.9859 16.2507 91.211 16.5828C90.4361 16.9149 89.7719 17.3798 89.2406 17.9776C88.6871 18.5975 88.2886 19.3281 88.0007 20.2137C87.7129 21.0993 87.5801 22.0735 87.5801 23.1804C87.5801 24.3317 87.7129 25.328 87.9786 26.1915C88.2443 27.0549 88.6649 27.7634 89.2184 28.3169C89.7719 28.8704 90.4583 29.291 91.2774 29.5789C92.0966 29.8445 93.0486 29.9995 94.1556 29.9995C94.7534 29.9995 95.329 29.9552 95.8604 29.8888C96.3917 29.8003 96.8567 29.7117 97.2773 29.6231C97.698 29.5124 98.0301 29.4017 98.2958 29.291C98.5614 29.1803 98.7164 29.0918 98.7828 29.0254C98.8493 28.9589 98.8935 28.8925 98.9378 28.8261C98.9821 28.7597 99.0042 28.6711 99.0264 28.5604C99.0485 28.4497 99.0485 28.339 99.0707 28.1841C99.0707 28.0512 99.0928 27.8741 99.0928 27.6748C99.0928 27.4534 99.0928 27.2542 99.0707 27.0992C99.0485 26.9442 99.0264 26.8335 99.0042 26.745C98.96 26.6564 98.9157 26.6121 98.8714 26.5678C98.8271 26.5236 98.7386 26.5236 98.6721 26.5236C98.5393 26.5236 98.3622 26.5678 98.1408 26.6564C97.9194 26.745 97.6316 26.8335 97.2995 26.9442C96.9674 27.0549 96.5689 27.1435 96.1039 27.232C95.639 27.3206 95.1076 27.3649 94.5098 27.3649C93.9121 27.3649 93.4029 27.2763 92.9822 27.1213C92.5615 26.9664 92.2073 26.745 91.9416 26.435C91.6759 26.1472 91.4767 25.7708 91.3439 25.3502C91.211 24.9295 91.1667 24.4424 91.1667 23.9332H98.65C98.9821 23.9332 99.2478 23.8225 99.4249 23.6232C99.6242 23.424 99.7127 23.114 99.7127 22.6934V22.1399C99.7127 21.2764 99.602 20.4794 99.3806 19.7488C99.0707 18.996 98.7386 18.354 98.2736 17.8226ZM91.0782 21.6749C91.1003 21.2321 91.1667 20.8336 91.2774 20.4573C91.3881 20.0809 91.5652 19.7488 91.7645 19.461C91.9859 19.1731 92.2516 18.9517 92.5837 18.7968C92.9158 18.6418 93.2922 18.5532 93.735 18.5532C94.5984 18.5532 95.2626 18.841 95.6833 19.3945C96.1039 19.948 96.3032 20.7229 96.2589 21.6971H91.0782V21.6749Z" fill="white"/>
<path d="M105.604 10.6047C105.471 10.5604 105.294 10.5161 105.073 10.494C104.851 10.4718 104.564 10.4497 104.231 10.4497C103.899 10.4497 103.612 10.4718 103.39 10.494C103.169 10.5161 102.992 10.5604 102.859 10.6047C102.726 10.649 102.637 10.7154 102.571 10.7818C102.527 10.8482 102.482 10.9368 102.482 11.0253V29.1579C102.482 29.2464 102.505 29.335 102.571 29.4014C102.637 29.4678 102.726 29.5342 102.859 29.5785C102.992 29.6228 103.169 29.6671 103.39 29.6892C103.612 29.7114 103.899 29.7335 104.231 29.7335C104.564 29.7335 104.851 29.7114 105.073 29.6892C105.294 29.6671 105.471 29.6228 105.604 29.5785C105.737 29.5342 105.826 29.4678 105.892 29.4014C105.936 29.335 105.981 29.2464 105.981 29.1579V11.0475C105.981 10.9589 105.958 10.8704 105.892 10.8039C105.826 10.7375 105.737 10.6711 105.604 10.6047Z" fill="white"/>
<path d="M117.093 29.6455H121.831C122.539 29.6455 123.203 29.6012 123.779 29.5126C124.355 29.4241 124.908 29.2912 125.417 29.1141C125.926 28.937 126.414 28.6935 126.834 28.4057C127.255 28.1178 127.631 27.7857 127.941 27.3872C128.251 26.9887 128.495 26.5459 128.672 26.0146C128.849 25.5053 128.937 24.9297 128.937 24.2876C128.937 23.6899 128.849 23.1364 128.672 22.6493C128.495 22.1622 128.229 21.7416 127.919 21.3652C127.609 21.011 127.233 20.701 126.812 20.4796C126.391 20.2582 125.926 20.0811 125.417 19.9925C125.816 19.8375 126.17 19.6604 126.48 19.4169C126.79 19.1733 127.056 18.9077 127.255 18.5977C127.476 18.2878 127.631 17.9335 127.742 17.5571C127.853 17.1808 127.897 16.7601 127.897 16.3394C127.897 15.5646 127.764 14.9004 127.476 14.3247C127.211 13.7491 126.812 13.2841 126.281 12.9078C125.771 12.5314 125.129 12.2657 124.355 12.0665C123.602 11.8893 122.672 11.8008 121.565 11.8008H117.093C116.783 11.8008 116.539 11.8893 116.318 12.0665C116.119 12.2436 116.008 12.5314 116.008 12.9521V28.5164C116.008 28.9149 116.119 29.2027 116.318 29.4019C116.539 29.5569 116.783 29.6455 117.093 29.6455ZM119.572 14.524H121.41C121.963 14.524 122.428 14.5683 122.76 14.679C123.093 14.7897 123.38 14.9225 123.602 15.1218C123.823 15.321 123.978 15.5424 124.089 15.8302C124.2 16.118 124.244 16.428 124.244 16.8044C124.244 17.1365 124.2 17.4243 124.089 17.7121C123.978 17.9999 123.823 18.2656 123.624 18.4649C123.425 18.6863 123.159 18.8412 122.849 18.9741C122.539 19.1069 122.118 19.1512 121.587 19.1512H119.55V14.524H119.572ZM119.572 21.808H121.72C122.384 21.808 122.915 21.8744 123.336 21.9851C123.757 22.0958 124.089 22.2729 124.355 22.4943C124.62 22.7157 124.819 22.9814 124.952 23.3135C125.085 23.6456 125.152 23.9998 125.152 24.4205C125.152 24.819 125.085 25.1732 124.93 25.4832C124.797 25.7932 124.598 26.0588 124.332 26.2581C124.089 26.4573 123.779 26.6123 123.447 26.723C123.093 26.8337 122.672 26.878 122.163 26.878H119.55V21.808H119.572Z" fill="white"/>
<path d="M143.241 29.4237C143.285 29.3573 143.307 29.2687 143.307 29.1801V16.8925C143.307 16.804 143.285 16.7154 143.218 16.649C143.174 16.5826 143.063 16.5162 142.953 16.4719C142.82 16.4276 142.643 16.3833 142.421 16.3612C142.2 16.339 141.912 16.3169 141.58 16.3169C141.248 16.3169 140.96 16.339 140.739 16.3612C140.517 16.3833 140.34 16.4276 140.207 16.4719C140.075 16.5162 139.986 16.5826 139.942 16.649C139.897 16.7154 139.875 16.804 139.875 16.8925V25.0621C139.366 25.682 138.901 26.147 138.458 26.4791C138.016 26.8112 137.573 26.9662 137.13 26.9662C136.776 26.9662 136.466 26.8997 136.222 26.7669C135.957 26.6341 135.735 26.4348 135.58 26.1913C135.403 25.9477 135.292 25.6599 135.204 25.3057C135.115 24.9736 135.071 24.4644 135.071 23.8223V16.8925C135.071 16.804 135.049 16.7154 134.982 16.649C134.938 16.5826 134.827 16.5162 134.695 16.4719C134.562 16.4276 134.385 16.3833 134.163 16.3612C133.942 16.339 133.654 16.3169 133.322 16.3169C132.99 16.3169 132.702 16.339 132.481 16.3612C132.259 16.3833 132.082 16.4276 131.949 16.4719C131.816 16.5162 131.728 16.5826 131.684 16.649C131.639 16.7154 131.617 16.804 131.617 16.8925V24.4201C131.617 25.3499 131.684 26.147 131.839 26.7669C131.994 27.3868 132.237 27.9403 132.591 28.4274C132.946 28.9145 133.411 29.2908 133.986 29.5565C134.562 29.8222 135.27 29.9772 136.112 29.9772C136.864 29.9772 137.595 29.8 138.303 29.4237C139.012 29.0473 139.698 28.4938 140.385 27.7632V29.1801C140.385 29.2687 140.407 29.3573 140.451 29.4237C140.495 29.4901 140.584 29.5565 140.695 29.6008C140.805 29.6451 140.96 29.6894 141.137 29.7115C141.337 29.7336 141.58 29.7558 141.868 29.7558C142.156 29.7558 142.399 29.7336 142.576 29.7115C142.776 29.6894 142.909 29.6451 143.041 29.6008C143.108 29.5565 143.196 29.4901 143.241 29.4237Z" fill="white"/>
<path d="M148.51 14.5679C149.285 14.5679 149.816 14.4351 150.104 14.1694C150.392 13.9037 150.525 13.4167 150.525 12.7303C150.525 12.0661 150.392 11.6012 150.104 11.3355C149.839 11.0699 149.307 10.937 148.532 10.937C147.757 10.937 147.226 11.0699 146.938 11.3355C146.65 11.6012 146.518 12.0883 146.518 12.7968C146.518 13.461 146.65 13.9259 146.916 14.1916C147.204 14.4351 147.735 14.5679 148.51 14.5679Z" fill="white"/>
<path d="M149.905 29.6011C150.038 29.5568 150.126 29.4904 150.193 29.424C150.259 29.3576 150.281 29.269 150.281 29.1805V16.915C150.281 16.8264 150.259 16.7379 150.193 16.6715C150.148 16.605 150.038 16.5386 149.905 16.4943C149.772 16.4501 149.595 16.4058 149.374 16.3836C149.152 16.3615 148.864 16.3394 148.532 16.3394C148.2 16.3394 147.912 16.3615 147.691 16.3836C147.47 16.4058 147.292 16.4501 147.16 16.4943C147.027 16.5386 146.938 16.605 146.872 16.6715C146.827 16.7379 146.783 16.8264 146.783 16.915V29.1805C146.783 29.269 146.805 29.3576 146.872 29.424C146.938 29.4904 147.027 29.5568 147.16 29.6011C147.292 29.6454 147.47 29.6897 147.691 29.7118C147.912 29.734 148.2 29.7561 148.532 29.7561C148.864 29.7561 149.152 29.734 149.374 29.7118C149.595 29.6897 149.772 29.6454 149.905 29.6011Z" fill="white"/>
<path d="M156.835 29.601C156.967 29.5567 157.056 29.4903 157.122 29.4239C157.189 29.3574 157.211 29.2689 157.211 29.1803V11.0478C157.211 10.9592 157.189 10.8707 157.122 10.8043C157.078 10.7378 156.967 10.6714 156.835 10.6271C156.702 10.5829 156.525 10.5386 156.303 10.5164C156.082 10.4943 155.794 10.4722 155.462 10.4722C155.13 10.4722 154.842 10.4943 154.621 10.5164C154.399 10.5386 154.222 10.5829 154.089 10.6271C153.956 10.6714 153.868 10.7378 153.801 10.8043C153.757 10.8707 153.713 10.9592 153.713 11.0478V29.1803C153.713 29.2689 153.735 29.3574 153.801 29.4239C153.868 29.4903 153.956 29.5567 154.089 29.601C154.222 29.6453 154.399 29.6895 154.621 29.7117C154.842 29.7338 155.13 29.756 155.462 29.756C155.794 29.756 156.082 29.7338 156.303 29.7117C156.525 29.6895 156.702 29.6453 156.835 29.601Z" fill="white"/>
<path d="M171.978 10.6491C171.845 10.6048 171.668 10.5606 171.447 10.5384C171.226 10.5163 170.938 10.4941 170.606 10.4941C170.274 10.4941 169.986 10.5163 169.764 10.5384C169.543 10.5606 169.366 10.6048 169.233 10.6491C169.1 10.6934 169.012 10.7598 168.967 10.8262C168.923 10.8927 168.901 10.9812 168.901 11.0698V17.7339C168.347 17.2025 167.794 16.7819 167.24 16.494C166.687 16.2062 166.045 16.0734 165.359 16.0734C164.495 16.0734 163.72 16.2284 163.034 16.5605C162.37 16.8925 161.794 17.3575 161.351 17.9774C160.908 18.5973 160.554 19.3279 160.333 20.2135C160.089 21.077 159.979 22.0733 159.979 23.1581C159.979 24.0659 160.067 24.9293 160.244 25.7485C160.421 26.5677 160.731 27.2983 161.13 27.896C161.528 28.516 162.06 29.003 162.724 29.3573C163.366 29.7115 164.163 29.9108 165.093 29.9108C165.934 29.9108 166.709 29.7115 167.395 29.3351C168.082 28.9588 168.746 28.4274 169.388 27.7411V29.1137C169.388 29.2244 169.41 29.2908 169.454 29.3794C169.499 29.4458 169.587 29.5122 169.698 29.5565C169.809 29.6008 169.964 29.6451 170.141 29.6451C170.318 29.6672 170.561 29.6672 170.849 29.6672C171.115 29.6672 171.358 29.6672 171.536 29.6451C171.735 29.6229 171.868 29.6008 171.978 29.5565C172.089 29.5122 172.178 29.4458 172.222 29.3794C172.266 29.313 172.288 29.2244 172.288 29.1137V11.0919C172.288 11.0034 172.266 10.9148 172.2 10.8484C172.2 10.7598 172.111 10.7155 171.978 10.6491ZM168.879 25.04C168.591 25.4164 168.303 25.7263 168.06 25.9699C167.816 26.2134 167.572 26.4348 167.329 26.5898C167.085 26.7448 166.864 26.8555 166.643 26.9219C166.421 26.9883 166.178 27.0326 165.956 27.0326C165.469 27.0326 165.093 26.9219 164.761 26.6784C164.429 26.4348 164.207 26.147 164.008 25.7706C163.809 25.3942 163.676 24.9514 163.609 24.4644C163.521 23.9773 163.477 23.4681 163.477 22.9589C163.477 22.4718 163.521 22.0068 163.632 21.5419C163.72 21.077 163.875 20.6563 164.074 20.2799C164.274 19.9036 164.539 19.5936 164.871 19.3722C165.204 19.1508 165.58 19.0401 166.045 19.0401C166.532 19.0401 167.019 19.1951 167.462 19.5272C167.927 19.8593 168.392 20.3464 168.879 20.9663V25.04Z" fill="white"/>
<path d="M177.579 10.915C176.804 10.915 176.273 11.0479 175.985 11.3136C175.697 11.5792 175.564 12.0663 175.564 12.7748C175.564 13.439 175.697 13.9039 175.963 14.1696C176.229 14.4353 176.76 14.546 177.535 14.546C178.31 14.546 178.841 14.4131 179.129 14.1475C179.417 13.8818 179.55 13.3947 179.55 12.7084C179.55 12.0442 179.417 11.5792 179.129 11.3136C178.863 11.0479 178.354 10.915 177.579 10.915Z" fill="white"/>
<path d="M178.93 16.4943C178.797 16.4501 178.62 16.4058 178.399 16.3836C178.178 16.3615 177.89 16.3394 177.558 16.3394C177.226 16.3394 176.938 16.3615 176.716 16.3836C176.495 16.4058 176.318 16.4501 176.185 16.4943C176.052 16.5386 175.964 16.605 175.897 16.6715C175.853 16.7379 175.809 16.8264 175.809 16.915V29.1805C175.809 29.269 175.831 29.3576 175.897 29.424C175.964 29.4904 176.052 29.5568 176.185 29.6011C176.318 29.6454 176.495 29.6897 176.716 29.7118C176.938 29.734 177.226 29.7561 177.558 29.7561C177.89 29.7561 178.178 29.734 178.399 29.7118C178.62 29.6897 178.797 29.6454 178.93 29.6011C179.063 29.5568 179.152 29.4904 179.218 29.424C179.285 29.3576 179.307 29.269 179.307 29.1805V16.915C179.307 16.8264 179.285 16.7379 179.218 16.6715C179.152 16.605 179.063 16.5386 178.93 16.4943Z" fill="white"/>
<path d="M193.519 17.6455C193.165 17.1806 192.7 16.8042 192.124 16.5164C191.549 16.2507 190.84 16.0957 189.999 16.0957C189.246 16.0957 188.493 16.2728 187.807 16.6492C187.099 17.0256 186.412 17.5791 185.726 18.3097V16.8927C185.726 16.8042 185.704 16.7156 185.659 16.6492C185.615 16.5828 185.527 16.5164 185.438 16.4721C185.327 16.4278 185.172 16.3835 184.995 16.3614C184.796 16.3392 184.552 16.3171 184.265 16.3171C183.977 16.3171 183.733 16.3392 183.556 16.3614C183.357 16.3835 183.224 16.4278 183.091 16.4721C182.981 16.5164 182.892 16.5828 182.848 16.6492C182.803 16.7156 182.781 16.8042 182.781 16.8927V29.2025C182.781 29.291 182.803 29.3796 182.87 29.446C182.936 29.5124 183.025 29.5789 183.158 29.6231C183.29 29.6674 183.468 29.7117 183.689 29.7338C183.91 29.756 184.198 29.7781 184.53 29.7781C184.862 29.7781 185.15 29.756 185.372 29.7338C185.593 29.7117 185.77 29.6674 185.903 29.6231C186.036 29.5789 186.124 29.5124 186.191 29.446C186.257 29.3796 186.279 29.291 186.279 29.2025V21.0107C186.766 20.3908 187.231 19.9259 187.696 19.5938C188.139 19.2617 188.582 19.1067 189.025 19.1067C189.379 19.1067 189.689 19.1731 189.932 19.306C190.198 19.4388 190.397 19.6381 190.574 19.8816C190.729 20.1252 190.862 20.413 190.951 20.7672C191.039 21.0993 191.084 21.5864 191.084 22.1842V29.2025C191.084 29.291 191.106 29.3796 191.172 29.446C191.239 29.5124 191.327 29.5789 191.438 29.6231C191.571 29.6674 191.748 29.7117 191.969 29.7338C192.191 29.756 192.479 29.7781 192.811 29.7781C193.143 29.7781 193.431 29.756 193.652 29.7338C193.873 29.7117 194.05 29.6674 194.183 29.6231C194.316 29.5789 194.405 29.5124 194.449 29.446C194.493 29.3796 194.538 29.291 194.538 29.2025V21.5864C194.538 20.7008 194.449 19.9259 194.294 19.306C194.117 18.6639 193.873 18.1104 193.519 17.6455Z" fill="white"/>
<path d="M208.863 18.7079C208.974 18.4865 209.018 18.1765 209.018 17.7337C209.018 17.2466 208.974 16.9145 208.863 16.7153C208.775 16.516 208.642 16.4053 208.487 16.4053H204.568C204.258 16.3168 203.926 16.2503 203.572 16.2061C203.218 16.1618 202.841 16.1396 202.465 16.1396C201.712 16.1396 201.026 16.2503 200.406 16.4496C199.786 16.6489 199.232 16.9588 198.79 17.3352C198.347 17.7337 197.992 18.1987 197.727 18.7743C197.461 19.3499 197.35 19.992 197.35 20.7005C197.35 21.3646 197.439 21.9403 197.638 22.3831C197.838 22.8259 198.081 23.2244 198.413 23.5343C198.015 23.8886 197.705 24.2871 197.439 24.752C197.195 25.1948 197.063 25.6819 197.063 26.2354C197.063 26.6782 197.173 27.0546 197.395 27.431C197.616 27.7852 197.926 28.073 198.302 28.2944C198.015 28.5158 197.771 28.7372 197.55 28.9586C197.328 29.18 197.151 29.4235 196.996 29.6892C196.841 29.9549 196.731 30.1984 196.642 30.4862C196.553 30.7519 196.531 31.0619 196.531 31.3497C196.531 31.8368 196.642 32.2796 196.863 32.7002C197.085 33.0987 197.417 33.453 197.904 33.7629C198.369 34.0508 198.989 34.2943 199.719 34.4493C200.45 34.6043 201.358 34.6928 202.398 34.6928C203.483 34.6928 204.413 34.5821 205.21 34.3386C206.007 34.1172 206.693 33.7851 207.225 33.4087C207.756 33.0102 208.155 32.5453 208.42 32.0139C208.686 31.4825 208.819 30.9069 208.819 30.287C208.819 29.7335 208.73 29.2464 208.531 28.8036C208.332 28.3608 208.044 28.0066 207.668 27.6966C207.291 27.3867 206.826 27.1431 206.295 26.9882C205.741 26.811 205.122 26.7225 204.435 26.7003L201.446 26.5896C201.026 26.5675 200.694 26.4789 200.45 26.3018C200.206 26.1247 200.096 25.9033 200.096 25.6376C200.096 25.4384 200.14 25.2613 200.229 25.0841C200.317 24.9292 200.406 24.7742 200.516 24.6635C200.716 24.7963 200.981 24.907 201.336 24.9956C201.69 25.0841 202.066 25.1506 202.465 25.1506C203.24 25.1506 203.948 25.062 204.568 24.8627C205.188 24.6635 205.741 24.3757 206.184 23.9993C206.627 23.6229 206.981 23.158 207.203 22.5823C207.446 22.0288 207.557 21.3868 207.557 20.6783C207.557 20.3684 207.513 20.0805 207.424 19.7927C207.336 19.5049 207.203 19.2614 206.981 19.04H208.42C208.62 19.04 208.752 18.9293 208.863 18.7079ZM200.118 30.0435C200.206 29.8885 200.317 29.7335 200.472 29.5785C200.605 29.4235 200.804 29.2464 201.048 29.0693L203.505 29.1357C204.081 29.1579 204.546 29.2686 204.878 29.49C205.21 29.7114 205.365 30.0213 205.365 30.442C205.365 30.6855 205.321 30.9069 205.232 31.1283C205.144 31.3497 204.989 31.549 204.767 31.7039C204.546 31.8811 204.258 32.0139 203.904 32.1246C203.55 32.2353 203.107 32.2796 202.575 32.2796C201.734 32.2796 201.07 32.1689 200.605 31.9253C200.14 31.6818 199.919 31.3276 199.919 30.8848C199.919 30.7298 199.941 30.597 199.963 30.4641C199.985 30.3313 200.029 30.1984 200.118 30.0435ZM204.413 21.4311C204.324 21.6746 204.192 21.896 204.037 22.0953C203.86 22.2945 203.66 22.4495 203.395 22.5602C203.129 22.6709 202.841 22.7152 202.487 22.7152C201.845 22.7152 201.313 22.5381 200.959 22.1617C200.583 21.8074 200.406 21.2982 200.406 20.6783C200.406 20.3905 200.45 20.1248 200.539 19.8591C200.627 19.5935 200.738 19.3721 200.915 19.1728C201.092 18.9735 201.291 18.8186 201.557 18.7079C201.823 18.5972 202.111 18.5307 202.443 18.5307C203.107 18.5307 203.638 18.7079 203.992 19.0842C204.369 19.4606 204.546 19.9698 204.546 20.634C204.546 20.9218 204.502 21.1875 204.413 21.4311Z" fill="white"/>
<path d="M59.9505 42.8846C59.707 43.1282 59.397 43.261 59.0428 43.261C58.6 43.261 58.2236 43.0839 57.9579 42.7075C57.6701 42.3311 57.5373 41.7555 57.5373 40.9363C57.5373 40.1393 57.6923 39.5637 57.9801 39.1873C58.2679 38.8109 58.6443 38.6338 59.1092 38.6338C59.4192 38.6338 59.6848 38.7445 59.8841 38.9438C60.1055 39.143 60.2605 39.453 60.3269 39.8515L61.2125 39.6965C61.1018 39.0987 60.8583 38.6117 60.504 38.2796C60.1276 37.9475 59.6406 37.7925 59.0649 37.7925C58.6 37.7925 58.1572 37.9032 57.7808 38.1467C57.3823 38.3903 57.0945 38.7445 56.8952 39.2316C56.696 39.7186 56.6074 40.2943 56.6074 40.9363C56.6074 41.9326 56.8288 42.7075 57.2938 43.2389C57.7587 43.7702 58.3343 44.0359 59.0871 44.0359C59.6848 44.0359 60.1719 43.8367 60.5926 43.4603C60.9911 43.0618 61.2568 42.5304 61.3453 41.8441L60.4376 41.7112C60.349 42.2647 60.1941 42.6411 59.9505 42.8846Z" fill="white"/>
<path d="M63.0275 42.5302V37.9473H62.0977V43.9472H63.0939L65.64 39.3864V43.9472H66.5478V37.9473H65.5736L63.0275 42.5302Z" fill="white"/>
<path d="M71.0208 42.8846C70.7773 43.1282 70.4674 43.261 70.1131 43.261C69.6703 43.261 69.2939 43.0839 69.0283 42.7075C68.7404 42.3311 68.6076 41.7555 68.6076 40.9363C68.6076 40.1393 68.7626 39.5637 69.0504 39.1873C69.3382 38.8109 69.7146 38.6338 70.1795 38.6338C70.4895 38.6338 70.7552 38.7445 70.9544 38.9438C71.1758 39.143 71.3308 39.453 71.3972 39.8515L72.2828 39.6965C72.1721 39.0987 71.9286 38.6117 71.5743 38.2796C71.198 37.9475 70.7109 37.7925 70.1353 37.7925C69.6703 37.7925 69.2275 37.9032 68.8511 38.1467C68.4526 38.3903 68.1648 38.7445 67.9655 39.2316C67.7663 39.7186 67.6777 40.2943 67.6777 40.9363C67.6777 41.9326 67.8991 42.7075 68.3641 43.2389C68.829 43.7702 69.4046 44.0359 70.1574 44.0359C70.7552 44.0359 71.2422 43.8367 71.6629 43.4603C72.0614 43.0618 72.3271 42.5304 72.4157 41.8441L71.5079 41.7112C71.4194 42.2647 71.2644 42.6411 71.0208 42.8846Z" fill="white"/>
<path d="M72.6582 38.7886H74.4073V43.9472H75.3371V38.7886H77.064V37.9473H72.6582V38.7886Z" fill="white"/>
<path d="M80.0532 37.7925C79.3005 37.7925 78.7027 38.0803 78.2378 38.6338C77.7728 39.1873 77.5293 39.9843 77.5293 40.9806C77.5293 41.9548 77.7507 42.7075 78.2156 43.261C78.6806 43.7924 79.3005 44.0802 80.0975 44.0802C80.7174 44.0802 81.2488 43.9031 81.6473 43.571C82.0458 43.2389 82.3336 42.7518 82.4886 42.1319L81.5366 41.999C81.4038 42.4197 81.2045 42.7518 80.961 42.9289C80.7174 43.1282 80.4296 43.2167 80.0975 43.2167C79.6547 43.2167 79.2783 43.0396 78.9684 42.6854C78.6584 42.3311 78.5034 41.8219 78.4592 41.1577H82.4886C82.4886 41.047 82.4886 40.9363 82.4886 40.8921C82.4886 39.8958 82.2672 39.1209 81.8023 38.5895C81.3816 38.0803 80.7839 37.7925 80.0532 37.7925ZM78.5256 40.3607C78.5477 39.8293 78.7248 39.4087 79.0127 39.0987C79.3005 38.7888 79.6547 38.6338 80.0754 38.6338C80.5403 38.6338 80.9167 38.8331 81.2045 39.2316C81.4038 39.4751 81.5145 39.8736 81.5587 40.3607H78.5256Z" fill="white"/>
<path d="M86.5181 42.7516L85.1012 37.9473H83.6621V43.9472H84.5698V38.8771L86.0753 43.9472H86.8945L88.5107 39.0985V43.9472H89.4185V37.9473H88.0901L86.5181 42.7516Z" fill="white"/>
<path d="M94.6661 40.7812C94.2455 40.4491 93.6698 40.2941 92.9171 40.2941H91.7437V37.9473H90.8359V43.9693H93.1385C93.8912 43.9693 94.4447 43.7922 94.7768 43.4379C95.1089 43.0837 95.286 42.6409 95.286 42.1538C95.286 41.5561 95.0868 41.0911 94.6661 40.7812ZM93.9798 42.8623C93.7363 43.0173 93.3156 43.1058 92.74 43.1058H91.7658V41.1133H92.8507C93.4706 41.1133 93.8912 41.224 94.0684 41.4232C94.2455 41.6225 94.334 41.866 94.334 42.1096C94.334 42.4638 94.2233 42.7073 93.9798 42.8623Z" fill="white"/>
<path d="M96.8784 37.9473H95.9707V43.9693H96.8784V37.9473Z" fill="white"/>
<path d="M103.611 41.446C103.456 41.8888 103.346 42.3537 103.235 42.8187C103.124 42.3316 102.991 41.8667 102.836 41.4239L101.707 37.9479H100.711L102.77 43.97C102.726 44.0807 102.704 44.1692 102.681 44.2135C102.549 44.612 102.46 44.8777 102.394 44.9662C102.305 45.0991 102.216 45.2098 102.084 45.2762C101.951 45.3426 101.796 45.3869 101.597 45.3869C101.442 45.3869 101.264 45.3648 101.065 45.2983L101.176 46.2504C101.397 46.3389 101.597 46.3832 101.774 46.3832C102.061 46.3832 102.327 46.2946 102.526 46.1397C102.748 45.9847 102.925 45.7411 103.08 45.409C103.213 45.1655 103.368 44.7006 103.589 44.0364L105.648 37.9258H104.74L103.611 41.446Z" fill="white"/>
<path d="M109.212 42.7516L107.795 37.9473H106.355V43.9472H107.263V38.8771L108.769 43.9472H109.588L111.204 39.0985V43.9472H112.112V37.9473H110.806L109.212 42.7516Z" fill="white"/>
<path d="M116.983 40.4491H114.437V37.9473H113.529V43.9472H114.437V41.2904H116.983V43.9472H117.913V37.9473H116.983V40.4491Z" fill="white"/>
<path d="M121.499 37.7925C120.835 37.7925 120.259 38.0139 119.794 38.4567C119.241 38.988 118.953 39.8072 118.953 40.9363C118.953 41.9548 119.197 42.7297 119.662 43.261C120.127 43.7924 120.746 44.0802 121.499 44.0802C121.964 44.0802 122.407 43.9474 122.805 43.7038C123.204 43.4603 123.514 43.106 123.713 42.6632C123.912 42.2204 124.023 41.6005 124.023 40.8478C124.023 39.8958 123.78 39.143 123.315 38.6117C122.85 38.0803 122.23 37.7925 121.499 37.7925ZM122.628 42.6632C122.318 43.0396 121.942 43.2389 121.499 43.2389C121.034 43.2389 120.658 43.0396 120.348 42.6632C120.038 42.2869 119.905 41.7112 119.905 40.9363C119.905 40.1614 120.06 39.5858 120.348 39.2094C120.658 38.8331 121.034 38.6338 121.499 38.6338C121.942 38.6338 122.341 38.8331 122.628 39.2094C122.938 39.5858 123.093 40.1614 123.093 40.8921C123.071 41.6891 122.938 42.2869 122.628 42.6632Z" fill="white"/>
<path d="M125.107 43.9472H126.015V38.7886H128.229V37.9473H125.107V43.9472Z" fill="white"/>
<path d="M130.886 37.7925C130.222 37.7925 129.646 38.0139 129.181 38.4567C128.628 38.988 128.34 39.8072 128.34 40.9363C128.34 41.9548 128.583 42.7297 129.048 43.261C129.513 43.7924 130.133 44.0802 130.886 44.0802C131.351 44.0802 131.794 43.9474 132.192 43.7038C132.591 43.4603 132.901 43.106 133.1 42.6632C133.299 42.2204 133.41 41.6005 133.41 40.8478C133.41 39.8958 133.166 39.143 132.701 38.6117C132.236 38.0803 131.617 37.7925 130.886 37.7925ZM132.015 42.6632C131.705 43.0396 131.329 43.2389 130.886 43.2389C130.421 43.2389 130.045 43.0396 129.735 42.6632C129.425 42.2869 129.292 41.7112 129.292 40.9363C129.292 40.1614 129.447 39.5858 129.735 39.2094C130.045 38.8331 130.421 38.6338 130.886 38.6338C131.329 38.6338 131.727 38.8331 132.015 39.2094C132.325 39.5858 132.48 40.1614 132.48 40.8921C132.48 41.6891 132.325 42.2869 132.015 42.6632Z" fill="white"/>
<path d="M141.89 37.9473H138.126C138.148 40.4269 137.838 42.1538 137.196 43.128H136.709V45.6741H137.462V43.9693H141.735V45.6741H142.487V43.128H141.912V37.9473H141.89ZM140.982 43.1058H138.06C138.547 42.176 138.812 40.7369 138.879 38.7664H140.982V43.1058Z" fill="white"/>
<path d="M145.675 37.7925C145.011 37.7925 144.435 38.0139 143.97 38.4567C143.417 38.988 143.129 39.8072 143.129 40.9363C143.129 41.9548 143.372 42.7297 143.837 43.261C144.302 43.7924 144.922 44.0802 145.675 44.0802C146.14 44.0802 146.583 43.9474 146.981 43.7038C147.38 43.4603 147.69 43.106 147.889 42.6632C148.088 42.2204 148.199 41.6005 148.199 40.8478C148.199 39.8958 147.955 39.143 147.49 38.6117C147.026 38.0803 146.428 37.7925 145.675 37.7925ZM146.826 42.6632C146.516 43.0396 146.14 43.2389 145.697 43.2389C145.232 43.2389 144.856 43.0396 144.546 42.6632C144.236 42.2869 144.103 41.7112 144.103 40.9363C144.103 40.1614 144.258 39.5858 144.546 39.2094C144.856 38.8331 145.232 38.6338 145.697 38.6338C146.14 38.6338 146.538 38.8331 146.826 39.2094C147.136 39.5858 147.291 40.1614 147.291 40.8921C147.269 41.6891 147.114 42.2869 146.826 42.6632Z" fill="white"/>
<path d="M152.162 42.7516L150.745 37.9473H149.328V43.9472H150.214V38.8771L151.741 43.9472H152.561L154.155 39.0985V43.9472H155.084V37.9473H153.756L152.162 42.7516Z" fill="white"/>
<path d="M160.865 41.4237V40.0732C160.865 39.6304 160.843 39.2983 160.821 39.1433C160.777 38.8555 160.666 38.6341 160.533 38.457C160.401 38.2799 160.179 38.1249 159.891 37.9921C159.604 37.8592 159.227 37.8149 158.762 37.8149C158.297 37.8149 157.877 37.8814 157.522 38.0363C157.168 38.1692 156.902 38.3906 156.703 38.6341C156.504 38.8777 156.371 39.2319 156.305 39.6747L157.212 39.8075C157.301 39.3869 157.456 39.0769 157.677 38.9219C157.877 38.7448 158.209 38.6784 158.629 38.6784C159.094 38.6784 159.449 38.7891 159.67 39.0326C159.847 39.2098 159.936 39.4976 159.936 39.9182C159.936 39.9625 159.936 40.0511 159.936 40.1839C159.581 40.3167 159.05 40.4274 158.297 40.5381C157.943 40.5824 157.655 40.6488 157.478 40.6931C157.235 40.7595 157.013 40.8702 156.814 41.0252C156.615 41.1802 156.46 41.3573 156.349 41.6009C156.238 41.8444 156.172 42.1101 156.172 42.3979C156.172 42.9071 156.327 43.3056 156.659 43.6377C156.969 43.9698 157.434 44.1248 158.032 44.1248C158.386 44.1248 158.74 44.0584 159.05 43.9255C159.36 43.7927 159.692 43.5713 160.024 43.2392C160.046 43.527 160.113 43.7706 160.201 43.9698H161.153C161.043 43.7484 160.954 43.5049 160.932 43.2392C160.888 42.9735 160.865 42.3757 160.865 41.4237ZM159.936 41.313C159.936 41.7558 159.891 42.1101 159.781 42.3315C159.648 42.6193 159.449 42.8628 159.183 43.0399C158.917 43.2171 158.585 43.3056 158.231 43.3056C157.877 43.3056 157.611 43.2171 157.412 43.0399C157.235 42.8628 157.124 42.6414 157.124 42.3536C157.124 42.1765 157.168 42.0215 157.257 41.8665C157.345 41.7116 157.456 41.6009 157.611 41.5344C157.766 41.468 158.032 41.4016 158.408 41.3352C159.072 41.2245 159.581 41.0916 159.913 40.9588V41.313H159.936Z" fill="white"/>
</g>
<defs>
<clipPath id="clip0_1_55">
<rect width="210" height="47" fill="white"/>
</clipPath>
</defs>
</svg>
