<svg width="510" height="311" viewBox="0 0 510 311" fill="none" xmlns="http://www.w3.org/2000/svg">
<path opacity="0.4" d="M474.207 309.346C474.207 309.346 508.379 265.996 491.011 148.224C460.005 -62.0019 52.3823 -23.7032 88.0691 108.893C110.505 192.255 -26.3199 176.315 26.1408 309.468L474.207 309.346Z" fill="#F9DDBF"/>
<path d="M355.463 44.0054H144.436V184.873H355.463V44.0054Z" fill="#A2B8AD"/>
<path d="M359.329 187.951H140.569V40.9287H359.329V187.951ZM144.436 184.873H355.464V44.0054H144.436V184.873Z" fill="#EAC3A0"/>
<path d="M360.741 187.832H139.493C138.333 187.832 137.382 186.884 137.382 185.722V185.603C137.382 184.443 138.331 183.493 139.493 183.493H360.741C361.901 183.493 362.852 184.442 362.852 185.603V185.722C362.852 186.884 361.901 187.832 360.741 187.832Z" fill="#D39E7A"/>
<path d="M313.576 183.493H307.142C306.373 183.493 305.745 182.864 305.745 182.097V182.017C305.745 181.249 306.375 180.62 307.142 180.62H313.576C314.344 180.62 314.974 181.249 314.974 182.017V182.097C314.974 182.866 314.344 183.493 313.576 183.493Z" fill="white"/>
<path d="M271.216 183.493H267.998C267.413 183.493 266.935 183.016 266.935 182.431V181.684C266.935 181.1 267.413 180.622 267.998 180.622H271.216C271.801 180.622 272.279 181.1 272.279 181.684V182.431C272.279 183.016 271.801 183.493 271.216 183.493Z" fill="white"/>
<path d="M263.955 183.493H257.442C256.674 183.493 256.045 182.864 256.045 182.097V182.017C256.045 181.249 256.674 180.62 257.442 180.62H263.955C264.722 180.62 265.352 181.249 265.352 182.017V182.097C265.352 182.866 264.722 183.493 263.955 183.493Z" fill="white"/>
<path d="M419.62 101.037H389.966C388.604 101.037 387.49 99.9246 387.49 98.5636V69.96C387.49 68.599 388.604 67.4863 389.966 67.4863H419.62C420.982 67.4863 422.095 68.599 422.095 69.96V98.5636C422.094 99.9246 420.98 101.037 419.62 101.037Z" fill="#EAC3A0"/>
<path d="M418.335 99.5846H391.249C390.005 99.5846 388.988 98.5671 388.988 97.3256V71.1995C388.988 69.9561 390.006 68.9404 391.249 68.9404H418.335C419.579 68.9404 420.595 69.9579 420.595 71.1995V97.3256C420.595 98.5671 419.577 99.5846 418.335 99.5846Z" fill="#FFEEDE"/>
<path d="M404.076 72.0026C404.076 71.6068 404.398 71.2856 404.794 71.2856C405.19 71.2856 405.511 71.6068 405.511 72.0026C405.511 72.3984 405.19 72.7195 404.794 72.7195C404.398 72.7195 404.076 72.3984 404.076 72.0026Z" fill="#EAC3A0"/>
<path d="M409.86 73.0145C410.052 72.6691 410.489 72.544 410.835 72.7363C411.181 72.9286 411.306 73.3654 411.113 73.7108C410.921 74.0562 410.484 74.1813 410.138 73.989C409.793 73.7967 409.667 73.3617 409.86 73.0145Z" fill="#EAC3A0"/>
<path d="M414.816 76.9502C415.148 76.7355 415.593 76.8307 415.806 77.1631C416.021 77.4954 415.926 77.9397 415.593 78.1525C415.261 78.3672 414.816 78.272 414.603 77.9397C414.386 77.6074 414.483 77.1649 414.816 76.9502Z" fill="#EAC3A0"/>
<path d="M417.271 83.04C417.667 83.04 417.988 83.3612 417.988 83.7569C417.988 84.1527 417.667 84.4739 417.271 84.4739C416.875 84.4739 416.554 84.1527 416.554 83.7569C416.554 83.3612 416.875 83.04 417.271 83.04Z" fill="#EAC3A0"/>
<path d="M416.018 90.1065C416.298 90.3866 416.298 90.8402 416.018 91.1203C415.737 91.4003 415.283 91.4003 415.003 91.1203C414.723 90.8402 414.723 90.3866 415.003 90.1065C415.283 89.8265 415.737 89.8265 416.018 90.1065Z" fill="#EAC3A0"/>
<path d="M411.516 94.6173C411.796 94.8973 411.796 95.351 411.516 95.631C411.235 95.9111 410.781 95.9111 410.501 95.631C410.221 95.351 410.221 94.8973 410.501 94.6173C410.781 94.3372 411.235 94.3372 411.516 94.6173Z" fill="#EAC3A0"/>
<path d="M404.076 96.9415C404.076 96.5457 404.398 96.2246 404.794 96.2246C405.19 96.2246 405.511 96.5457 405.511 96.9415C405.511 97.3373 405.19 97.6584 404.794 97.6584C404.398 97.6584 404.076 97.3373 404.076 96.9415Z" fill="#EAC3A0"/>
<path d="M399.702 73.0145C399.51 72.6691 399.073 72.544 398.727 72.7363C398.382 72.9286 398.256 73.3654 398.449 73.7108C398.641 74.0562 399.078 74.1813 399.424 73.989C399.77 73.7967 399.895 73.3617 399.702 73.0145Z" fill="#EAC3A0"/>
<path d="M394.747 76.9497C394.414 76.735 393.969 76.8303 393.756 77.1626C393.542 77.4949 393.637 77.9392 393.969 78.1521C394.302 78.3668 394.747 78.2715 394.959 77.9392C395.174 77.6069 395.079 77.1644 394.747 76.9497Z" fill="#EAC3A0"/>
<path d="M392.292 83.04C391.896 83.04 391.574 83.3612 391.574 83.7569C391.574 84.1527 391.896 84.4739 392.292 84.4739C392.688 84.4739 393.009 84.1527 393.009 83.7569C393.009 83.3612 392.688 83.04 392.292 83.04Z" fill="#EAC3A0"/>
<path d="M393.545 90.1065C393.265 90.3866 393.265 90.8402 393.545 91.1203C393.825 91.4003 394.279 91.4003 394.56 91.1203C394.84 90.8402 394.84 90.3866 394.56 90.1065C394.279 89.8265 393.825 89.8265 393.545 90.1065Z" fill="#EAC3A0"/>
<path d="M398.047 94.6173C397.767 94.8973 397.767 95.351 398.047 95.631C398.327 95.9111 398.781 95.9111 399.061 95.631C399.342 95.351 399.342 94.8973 399.061 94.6173C398.779 94.3372 398.325 94.3372 398.047 94.6173Z" fill="#EAC3A0"/>
<path d="M404.599 83.755C404.599 83.3592 404.92 83.0381 405.316 83.0381C405.712 83.0381 406.033 83.3592 406.033 83.755C406.033 84.1508 405.712 84.4719 405.316 84.4719C404.92 84.4719 404.599 84.1508 404.599 83.755Z" fill="#EAC3A0"/>
<path d="M405.413 74.8066H405.217V83.7568H405.413V74.8066Z" fill="#EAC3A0"/>
<path d="M409.775 79.7918L405.027 83.5161L405.39 83.9772L410.137 80.2529L409.775 79.7918Z" fill="#EAC3A0"/>
<path d="M123.79 229.786V231.778C123.79 232.476 123.564 233.046 123.287 233.046H50.5348C50.2583 233.046 50.0322 232.476 50.0322 231.778V229.786C50.0322 229.09 50.2583 228.519 50.5348 228.519H123.289C123.564 228.52 123.79 229.09 123.79 229.786Z" fill="#D39E7A"/>
<path d="M123.789 229.786V231.778C123.789 232.476 123.582 233.046 123.33 233.046H65.5709C65.3187 233.046 65.1113 232.476 65.1113 231.778V229.786C65.1113 229.09 65.3187 228.519 65.5709 228.519H123.33C123.582 228.52 123.789 229.09 123.789 229.786Z" fill="#EFCBAB"/>
<path d="M105.377 233.048H53.7256V308.284H105.377V233.048Z" fill="#EAC3A0"/>
<path d="M119.851 233.048H68.1992V308.284H119.851V233.048Z" fill="#F9DDBF"/>
<path d="M117.075 304.13H70.9756V235.172H117.075V304.13ZM71.4725 303.634H116.577V235.671H71.4725V303.634Z" fill="#EAC3A0"/>
<path d="M116.826 257.984H71.2236V258.481H116.826V257.984Z" fill="#EAC3A0"/>
<path d="M116.826 281.241H71.2236V281.74H116.826V281.241Z" fill="#EAC3A0"/>
<path d="M98.6981 239.62H90.2355C89.8245 239.62 89.4883 239.284 89.4883 238.873C89.4883 238.462 89.8245 238.126 90.2355 238.126H98.6981C99.1091 238.126 99.4454 238.462 99.4454 238.873C99.4454 239.284 99.1091 239.62 98.6981 239.62Z" fill="#EAC3A0"/>
<path d="M98.6981 262.363H90.2355C89.8245 262.363 89.4883 262.027 89.4883 261.616C89.4883 261.205 89.8245 260.869 90.2355 260.869H98.6981C99.1091 260.869 99.4454 261.205 99.4454 261.616C99.4454 262.027 99.1091 262.363 98.6981 262.363Z" fill="#EAC3A0"/>
<path d="M98.6981 286.069H90.2355C89.8245 286.069 89.4883 285.733 89.4883 285.322C89.4883 284.912 89.8245 284.576 90.2355 284.576H98.6981C99.1091 284.576 99.4454 284.912 99.4454 285.322C99.4454 285.733 99.1091 286.069 98.6981 286.069Z" fill="#EAC3A0"/>
<path d="M406.281 307.425H406.371C406.899 307.425 407.324 306.99 407.31 306.464L405.885 244.694L401.684 244.205L405.265 306.469C405.297 307.005 405.741 307.425 406.281 307.425Z" fill="#EAC3A0"/>
<path d="M430.76 307.425H430.849C431.378 307.425 431.802 306.99 431.789 306.464L430.364 244.694L426.162 244.205L429.745 306.469C429.777 307.005 430.222 307.425 430.76 307.425Z" fill="#EAC3A0"/>
<path d="M363.212 307.425H363.123C362.594 307.425 362.17 306.99 362.183 306.464L363.608 244.694L367.81 244.205L364.227 306.469C364.195 307.005 363.75 307.425 363.212 307.425Z" fill="#EAC3A0"/>
<path d="M433.544 240.86V198.533C433.544 191.086 427.502 185.048 420.05 185.048H389.534C382.083 185.048 376.041 191.086 376.041 198.533V242.479L433.544 240.86Z" fill="#EFCBAB"/>
<path d="M370.572 247.545H429.491C431.729 247.545 433.543 245.732 433.543 243.495V240.863H370.572V247.545Z" fill="#EAC3A0"/>
<path d="M363.513 247.545H408.088C409.744 247.545 411.085 246.204 411.085 244.55V243.855C411.085 242.201 409.744 240.861 408.088 240.861H363.513C361.858 240.861 360.517 242.201 360.517 243.855V244.55C360.517 246.204 361.858 247.545 363.513 247.545Z" fill="#F9DDBF"/>
<path d="M462.932 308.717H463.05C463.749 308.717 464.309 308.108 464.294 307.371L462.409 220.884L456.854 220.199L461.591 307.378C461.632 308.129 462.221 308.717 462.932 308.717Z" fill="#D39E7A"/>
<path d="M327.449 308.717H327.331C326.633 308.717 326.072 308.108 326.087 307.371L327.972 220.884L333.528 220.199L328.79 307.377C328.751 308.129 328.161 308.717 327.449 308.717Z" fill="#D39E7A"/>
<path d="M473.398 222.475H320.318C319.13 222.475 318.166 221.512 318.166 220.324V218.58C318.166 217.393 319.13 216.43 320.318 216.43H473.398C474.586 216.43 475.55 217.393 475.55 218.58V220.324C475.55 221.512 474.586 222.475 473.398 222.475Z" fill="#D39E7A"/>
<path d="M345.841 212.651H332.037V207.778H345.884C346.96 207.778 347.832 208.65 347.832 209.726V210.657C347.834 211.759 346.941 212.651 345.841 212.651Z" fill="#FCECDB"/>
<path d="M359.614 209.783V210.517C359.614 210.909 359.51 211.275 359.325 211.591C358.955 212.225 358.265 212.651 357.479 212.651H331.615C331.443 212.651 331.305 212.513 331.305 212.341V212.231C331.305 212.059 331.443 211.921 331.615 211.921H347.382C347.466 211.818 347.541 211.706 347.602 211.589C347.75 211.311 347.834 210.993 347.834 210.657V209.725C347.834 209.554 347.811 209.388 347.77 209.229C347.699 208.96 347.574 208.715 347.404 208.506H331.615C331.443 208.506 331.305 208.368 331.305 208.196V208.086C331.305 207.915 331.443 207.776 331.615 207.776H357.61C358.525 207.776 359.299 208.391 359.538 209.229C359.588 209.406 359.614 209.593 359.614 209.783Z" fill="#699DEE"/>
<path d="M359.538 209.231H347.77C347.699 208.962 347.574 208.717 347.404 208.508H331.615C331.443 208.508 331.305 208.37 331.305 208.198V208.088C331.305 207.916 331.443 207.778 331.615 207.778H357.61C358.525 207.78 359.299 208.393 359.538 209.231Z" fill="#548EE2"/>
<path d="M332.037 210.214L333.952 210.297L332.037 210.347V210.214Z" fill="#F4D2B8"/>
<path d="M332.037 210.98L336.593 211.062L332.037 211.111V210.98Z" fill="#F4D2B8"/>
<path d="M335.329 216.432H350.024V212.642H335.211C334.197 212.642 333.375 213.463 333.375 214.477C333.373 215.556 334.249 216.432 335.329 216.432Z" fill="#B5453C"/>
<path d="M349.18 216.432H365.903V212.642H349.139C348.107 212.642 347.271 213.476 347.271 214.507V214.522C347.271 215.576 348.126 216.432 349.18 216.432Z" fill="#FCECDB"/>
<path d="M346.153 216.431H366.482C366.639 216.431 366.766 216.304 366.766 216.148C366.766 215.991 366.639 215.864 366.482 215.864H346.153C345.996 215.864 345.869 215.991 345.869 216.148C345.871 216.304 345.998 216.431 346.153 216.431Z" fill="#B5453C"/>
<path d="M346.153 213.207H366.482C366.639 213.207 366.766 213.08 366.766 212.923C366.766 212.767 366.639 212.64 366.482 212.64H346.153C345.996 212.64 345.869 212.767 345.869 212.923C345.871 213.08 345.998 213.207 346.153 213.207Z" fill="#B5453C"/>
<path d="M365.903 214.536L363.645 214.6L365.903 214.637V214.536Z" fill="#F4D2B8"/>
<path d="M365.903 213.663L360.528 213.728L365.903 213.766V213.663Z" fill="#F4D2B8"/>
<path d="M360.584 213.715C360.584 213.715 360.814 213.877 360.89 214.146C360.903 214.193 360.913 214.243 360.915 214.295C360.928 214.652 360.915 215.457 360.915 215.457L361.595 215.053L362.273 215.457V214.366C362.273 214.161 362.215 213.959 362.107 213.829C362.054 213.765 361.991 213.717 361.92 213.717H360.584V213.715Z" fill="#699DEE"/>
<path d="M360.584 213.715C360.584 213.715 360.814 213.877 360.89 214.146L362.252 214.161C362.252 214.161 362.198 213.778 361.918 213.715H360.584Z" fill="#568CDB"/>
<path d="M360.706 207.78H352.815V204.14H360.775C361.356 204.14 361.827 204.61 361.827 205.191V206.662C361.827 207.278 361.325 207.78 360.706 207.78Z" fill="#F99746"/>
<path d="M354.949 207.78H330.243V204.14H354.99C355.95 204.14 356.73 204.918 356.73 205.878V206.001C356.73 206.983 355.932 207.78 354.949 207.78Z" fill="#FCECDB"/>
<path d="M358.455 207.78H329.277C329.131 207.78 329.014 207.662 329.014 207.517V207.498C329.014 207.352 329.131 207.235 329.277 207.235H358.455C358.601 207.235 358.719 207.352 358.719 207.498V207.517C358.719 207.662 358.601 207.78 358.455 207.78Z" fill="#F99746"/>
<path d="M358.455 204.683H329.277C329.131 204.683 329.014 204.565 329.014 204.42V204.401C329.014 204.255 329.131 204.138 329.277 204.138H358.455C358.601 204.138 358.719 204.255 358.719 204.401V204.42C358.719 204.565 358.601 204.683 358.455 204.683Z" fill="#F99746"/>
<path d="M457.373 213.962H456.33V196.013L467.001 168.798L447.948 154.044L448.587 153.219L468.258 168.453L457.373 196.209V213.962Z" fill="#EAC3A0"/>
<path d="M445.794 155.924C445.314 155.584 445.202 154.921 445.542 154.441L447.13 152.205C447.47 151.725 448.133 151.613 448.613 151.953C449.094 152.293 449.206 152.955 448.866 153.435L447.28 155.672C446.938 156.15 446.275 156.264 445.794 155.924Z" fill="#EAC3A0"/>
<path d="M467.392 169.866C468.155 169.866 468.773 169.249 468.773 168.487C468.773 167.725 468.155 167.107 467.392 167.107C466.63 167.107 466.012 167.725 466.012 168.487C466.012 169.249 466.63 169.866 467.392 169.866Z" fill="#EAC3A0"/>
<path d="M448.158 171.404C448.107 171.46 448.059 171.516 448.006 171.567L447.995 171.578C447.947 171.632 447.898 171.685 447.848 171.735C446.422 172.971 441.698 170.755 437.128 166.672C432.559 162.589 429.829 158.144 430.9 156.59C430.945 156.534 430.991 156.48 431.04 156.426L431.051 156.415C431.098 156.359 431.146 156.303 431.197 156.247C435.385 151.566 442.578 151.165 447.261 155.351C451.944 159.536 452.346 166.724 448.158 171.404Z" fill="#F99746"/>
<path d="M448.006 171.569L447.995 171.58C447.98 171.6 447.964 171.619 447.949 171.638C447.917 171.675 447.883 171.705 447.848 171.737C446.424 172.973 441.698 170.758 437.13 166.673C432.561 162.592 429.832 158.147 430.9 156.594C430.928 156.555 430.958 156.515 430.988 156.482C431.003 156.463 431.02 156.444 431.04 156.43L431.051 156.416C432.021 155.5 434.655 156.318 437.732 158.308C439.041 159.155 440.431 160.216 441.808 161.446C442.888 162.413 443.865 163.399 444.715 164.36C447.489 167.502 448.886 170.407 448.006 171.569Z" fill="#F9DDBF"/>
<path d="M444.717 164.358C443.912 165.023 442.875 165.419 441.747 165.419C439.157 165.419 437.058 163.32 437.058 160.733C437.058 159.844 437.306 159.013 437.734 158.306C439.043 159.153 440.433 160.214 441.81 161.444C442.888 162.411 443.867 163.397 444.717 164.358Z" fill="#FFF0E3"/>
<path d="M461.916 216.432H451.419V215.373C451.419 214.309 452.282 213.446 453.347 213.446H459.91C461.017 213.446 461.916 214.344 461.916 215.451V216.432Z" fill="#EAC3A0"/>
<path d="M457.949 197.282H455.744V213.962H457.949V197.282Z" fill="#EAC3A0"/>
<path d="M232.453 231.901L241.527 195.425L305.631 211.352L232.453 231.901ZM244.445 200.271L237.996 226.19L289.997 211.589L244.445 200.271Z" fill="#F9DDBF"/>
<path d="M266.384 203.68L263.425 202.944L258.65 222.136L261.609 222.871L266.384 203.68Z" fill="#EAC3A0"/>
<path d="M214.431 225.561C210.033 252.914 206.409 282.389 207.978 297.907C209.271 302.252 213.265 303.7 216.796 304.264L214.369 306.91L207.536 307.3L198.415 303.71C198.415 303.71 198.942 301.91 199.362 298.77C199.846 295.122 198.156 286.782 198.156 286.782C198.156 286.782 193.708 257.979 196.239 251.51C196.958 249.673 197.431 247.569 197.722 245.285V245.283C198.468 239.466 198.051 232.472 197.56 225.673C197.029 218.287 196.411 211.135 197.109 205.971C200.297 182.404 200.334 162.023 200.334 162.023H218.229C218.229 162.023 223.299 176.419 220.936 188.761C218.929 199.252 216.587 212.151 214.431 225.561Z" fill="#FFB27D"/>
<path d="M197.722 245.28C198.467 239.462 198.051 232.469 197.56 225.669L210.773 220.33L214.431 225.561C213.87 226.248 204.038 237.836 197.722 245.28Z" fill="#F3A36C"/>
<path d="M249.133 143.947C249.133 143.947 251.16 141.805 252.611 140.747C254.063 139.688 258.135 138.628 258.548 140.405C258.733 141.197 257.302 142.944 256.271 143.568C255.242 144.191 255.081 144.983 253.984 146.099C252.89 147.214 250.211 147.27 250.211 147.27L249.133 143.947Z" fill="#FFB27D"/>
<path d="M189.588 126.252C188.736 124.609 208.189 118.691 208.498 134.909C208.498 134.909 244.939 134.013 227.539 113.715C221.516 106.688 222.135 100.878 222.316 95.4697C222.499 90.0611 218.565 74.3395 205.075 75.9227C205.075 75.9227 201.542 74.487 197.134 76.7722C187.109 81.9698 164.653 132.234 189.588 126.252Z" fill="#233862"/>
<path d="M214.86 145.551C214.86 145.551 216.149 148.103 218.488 151.034C221.307 154.563 225.653 158.638 231.109 159.443C233.715 159.827 236.265 159.267 238.608 158.225C238.614 158.224 238.617 158.224 238.617 158.224C245.245 155.283 250.228 148.523 250.228 148.523C251.395 145.338 249.484 143.18 249.484 143.18C249.484 143.18 236.103 146.187 234.827 145.551C233.553 144.914 226.118 123.509 224.349 120.819C222.578 118.129 216.545 116.732 216.545 116.732L214.86 145.551Z" fill="#ADC8FE"/>
<path d="M218.489 151.034C221.308 154.563 225.653 158.638 231.11 159.443C233.716 159.827 236.266 159.267 238.609 158.226C238.349 158.259 231.73 159.077 229.092 154.359C226.4 149.546 223.492 141.905 219.494 144.451C217.77 145.553 217.846 148.286 218.489 151.034Z" fill="#8EB3EF"/>
<path d="M177.126 308.534C177.126 308.534 172.755 308.534 170.96 308.534C169.168 308.534 167.126 307.162 166.627 303.928C166.13 300.694 162.445 298.93 161.649 296.285C161.101 294.466 162.394 293.169 163.62 292.17C164.18 291.711 164.727 291.315 165.075 290.964C166.328 289.7 167.513 284.235 167.513 284.235L174.016 287.656C174.016 287.656 170.952 292.861 172.719 298.717C173.545 301.454 174.285 303.976 176.112 305.548C176.543 305.922 177.037 306.237 177.603 306.495C180.446 307.774 177.126 308.534 177.126 308.534Z" fill="#FFB27D"/>
<path d="M181.847 134.909C181.847 134.909 181.505 139.726 181.847 145.506C182.075 149.337 185.953 154.469 186.503 155.739C187.883 158.924 189.441 159.441 189.441 159.441L201.487 162.391L205.722 163.427L219.079 159.441C219.079 159.441 225.162 142.47 222.72 132.919C220.276 123.366 216.546 116.732 216.546 116.732C216.546 116.732 201.19 112.741 189.294 116.213L181.847 134.909Z" fill="#ADC8FE"/>
<path d="M190.205 161.405C190.205 161.405 180.115 174.935 179.175 184.079C178.234 193.226 187.156 218.54 185.153 227.454C183.666 234.073 175.738 239.321 173.549 256.004C172.788 261.799 170.044 273.389 167.513 284.232L173.102 289.715C186.418 259.387 200.186 240.293 200.999 233.589C201.574 228.843 204.274 203.878 215.195 185.448C217.816 181.023 213.586 163.429 213.586 163.429L190.205 161.405Z" fill="#FFB27D"/>
<path d="M221.563 192.549C220.08 210.614 218.333 225.832 218.333 225.832C218.333 225.832 209.904 231.507 197.976 232.23L197.975 232.231H197.973C192.523 232.56 186.345 231.858 179.906 229.108C179.906 229.108 177.451 185.481 179.013 178.532C180.577 171.584 187.494 162.021 187.494 162.021L218.617 163.223C218.619 163.221 223.047 174.481 221.563 192.549Z" fill="#F99746"/>
<path d="M219.287 158.842C219.287 158.842 216.632 160.94 211.356 161.047C205.055 161.174 189.443 159.441 189.443 159.441C189.443 159.441 188.75 161.379 188.778 163.423C188.778 163.423 207.846 168.231 218.896 164.125C218.894 164.127 220.32 161.448 219.287 158.842Z" fill="#ED7D2B"/>
<path d="M209.992 163.221C209.992 161.427 211.281 159.969 212.867 159.969C214.453 159.969 215.742 161.427 215.742 163.221C215.742 165.014 214.453 166.474 212.867 166.474C211.281 166.474 209.992 165.016 209.992 163.221ZM210.945 163.221C210.945 164.489 211.808 165.522 212.867 165.522C213.926 165.522 214.79 164.489 214.79 163.221C214.79 161.954 213.926 160.921 212.867 160.921C211.808 160.921 210.945 161.954 210.945 163.221Z" fill="white"/>
<path d="M168.907 162.555L188.444 179.557L211.73 152.83L192.192 135.829L168.907 162.555Z" fill="#233862"/>
<path d="M193.847 162.626C193.847 162.626 201.006 163.462 200.984 165.161C200.961 166.86 199.2 170.348 198.316 170.503C197.432 170.658 192.491 165.785 192.491 165.785L193.847 162.626Z" fill="#FFB27D"/>
<path d="M191.455 115.829C191.455 115.829 181.897 116.499 178.234 125.399C174.57 134.299 167.619 149.242 167.619 151.755C167.619 154.268 171.501 162.018 192.353 166.474C192.353 166.474 194.509 164.207 194.38 162.413C194.38 162.413 181.363 151.24 181.398 149.935C181.464 147.465 183.532 144.203 194.961 132.779C198.068 129.674 191.455 115.829 191.455 115.829Z" fill="#ADC8FE"/>
<path d="M247.752 169.44L276.391 85.3173C276.523 84.9346 276.699 84.5687 276.318 84.4286L275.97 84.3017C275.58 84.1598 275.466 84.4118 275.324 84.802L244.797 167.715C244.509 168.507 244.883 169.388 245.653 169.73L246.361 170.043C246.912 170.292 247.556 170.012 247.752 169.44Z" fill="#F9DDBF"/>
<path d="M251.644 143.534C251.644 143.534 252.944 143.492 254.323 143.133C255.406 142.849 256.796 142.345 256.796 142.345C257.614 142.941 254.773 144.563 254.048 145.672C253.456 146.578 252.783 146.839 251.15 147.19L251.644 143.534Z" fill="#FFB27D"/>
<path d="M205.869 308.291C209.85 307.799 208.8 308.814 214.381 308.848C219.961 308.881 221.87 307.024 222.133 306.225C222.369 305.515 219.677 304.942 216.796 304.264L216.693 304.337C216.693 304.337 213.185 306.273 208.586 305.848C204.836 305.502 201.003 303.969 198.417 303.71C198.259 304.558 198.102 305.424 198.175 306.299C198.375 308.786 201.887 308.784 205.869 308.291Z" fill="#233862"/>
<path d="M177.126 308.534C177.126 308.534 172.755 308.534 170.96 308.534C169.168 308.534 167.126 307.162 166.627 303.928C166.13 300.694 162.445 298.93 161.649 296.285C161.101 294.466 162.394 293.169 163.62 292.17C164.296 293.186 165.761 295.719 167.195 300.386C168.871 305.842 172.889 305.998 176.112 305.545C176.543 305.918 177.037 306.234 177.603 306.491C180.446 307.774 177.126 308.534 177.126 308.534Z" fill="#233862"/>
<path d="M192.957 115.368C194.894 114.938 196.497 113.579 197.164 111.712C197.967 109.462 198.606 106.143 198.591 101.981L199.196 102.101L209.365 104.114C209.365 104.114 209.133 107.312 209.125 110.325C209.125 110.349 209.125 110.375 209.125 110.4C209.112 113.017 210.831 115.326 213.345 116.051C214.631 116.42 207.222 126.17 206.374 125.977C204.612 125.58 192.344 115.506 192.957 115.368Z" fill="#FFB27D"/>
<path d="M209.364 104.112C209.364 104.112 209.133 107.31 209.125 110.323C203.435 110.162 200.427 104.976 199.194 102.099L209.364 104.112Z" fill="#E8945B"/>
<path d="M211.265 106.964C211.265 106.964 197.801 107.187 197.792 98.8058C197.782 90.425 196.039 84.8092 204.635 84.3126C213.23 83.816 214.904 87.0123 215.588 89.8089C216.271 92.6075 214.767 106.692 211.265 106.964Z" fill="#FFB27D"/>
<path d="M210.767 84.1075C210.767 84.1075 207.082 93.9408 201.425 95.3933C195.768 96.8476 193.313 95.3316 193.313 95.3316C193.313 95.3316 197.653 91.8871 198.554 85.8737C198.552 85.8755 207.986 79.4289 210.767 84.1075Z" fill="#233862"/>
<path d="M209.854 84.9067C209.854 84.9067 212.587 85.9279 213.711 87.9199C214.812 89.869 215.749 92.4492 215.531 95.6136C215.531 95.6136 218.309 88.93 215.187 85.1494C211.879 81.1411 209.854 84.9067 209.854 84.9067Z" fill="#233862"/>
<path d="M208.634 101.991C208.634 101.991 208.867 102.979 211.326 102.825C211.326 102.825 213.39 102.698 213.327 101.612C213.327 101.612 211.326 100.841 208.634 101.991Z" fill="white"/>
<path d="M206.375 125.977C206.375 125.977 197.27 116.256 196.928 112.283C196.928 112.283 194.606 112.927 191.875 115.584C191.875 115.584 194.063 121.064 196.676 122.871C196.676 122.871 198.578 122.604 200.076 121.988C200.076 121.988 199.125 123.563 198.372 124.504C198.37 124.502 202.497 126.842 206.375 125.977Z" fill="#D7E6FF"/>
<path d="M209.566 112.655C209.566 112.655 213.158 119.216 206.375 125.978C206.375 125.978 210.632 125.164 212.82 122.165C212.82 122.165 212.142 120.556 211.565 120.183C211.565 120.183 212.842 119.675 213.646 120.42C213.646 120.42 214.133 116.903 213.646 115.831C213.158 114.759 210.619 112.622 209.566 112.655Z" fill="#D7E6FF"/>
<path d="M205.695 125.978C205.695 125.602 206 125.3 206.373 125.3C206.747 125.3 207.052 125.604 207.052 125.978C207.052 126.353 206.747 126.655 206.373 126.655C206 126.655 205.695 126.353 205.695 125.978Z" fill="#233862"/>
<path d="M209.314 135.587C209.314 135.212 209.619 134.909 209.993 134.909C210.366 134.909 210.671 135.213 210.671 135.587C210.671 135.962 210.366 136.265 209.993 136.265C209.619 136.265 209.314 135.962 209.314 135.587Z" fill="#233862"/>
<path d="M209.992 146.857C209.992 146.482 210.297 146.18 210.67 146.18C211.044 146.18 211.348 146.484 211.348 146.857C211.348 147.233 211.044 147.535 210.67 147.535C210.297 147.535 209.992 147.231 209.992 146.857Z" fill="#233862"/>
<path d="M221.564 192.549C220.08 210.614 218.334 225.831 218.334 225.831C218.334 225.831 209.905 231.507 197.977 232.23C198.188 232.151 204.971 229.537 209.99 223.664C215.092 217.699 221.564 192.549 221.564 192.549Z" fill="#ED7D2B"/>
<g opacity="0.6">
<path opacity="0.6" d="M298.596 58.5977H299.702L302.689 65.4307H301.429L300.739 63.7934H297.53L296.831 65.4307H295.609L298.596 58.5977ZM300.302 62.7367L299.129 60.024L297.965 62.7367H300.302Z" fill="white"/>
<path opacity="0.6" d="M309.815 58.646H312.86C313.636 58.646 314.247 58.8588 314.635 59.2472C314.936 59.5477 315.091 59.9155 315.091 60.3916C315.091 61.2056 314.626 61.6425 314.121 61.9038C314.917 62.1745 315.47 62.6301 315.47 63.571C315.47 64.7827 314.471 65.4324 312.959 65.4324H309.817V58.646H309.815ZM312.618 61.5062C313.384 61.5062 313.897 61.2056 313.897 60.5652C313.897 60.0331 313.471 59.7027 312.705 59.7027H310.989V61.5062H312.618ZM312.967 64.3738C313.781 64.3738 314.276 64.0546 314.276 63.4235C314.276 62.8522 313.821 62.5125 312.879 62.5125H310.989V64.3738H312.967Z" fill="white"/>
<path opacity="0.6" d="M322.479 62.0383C322.479 60.1097 323.925 58.5303 325.98 58.5303C327.232 58.5303 327.989 58.9671 328.637 59.587L327.871 60.4682C327.327 59.9641 326.746 59.6243 325.971 59.6243C324.671 59.6243 323.731 60.6903 323.731 62.0383C323.731 63.3657 324.673 64.4523 325.971 64.4523C326.804 64.4523 327.339 64.1125 327.92 63.5711L328.685 64.3459C327.977 65.0833 327.202 65.5482 325.932 65.5482C323.953 65.5463 322.479 64.0061 322.479 62.0383Z" fill="white"/>
<path opacity="0.6" d="M290.096 73.875H292.627C294.76 73.875 296.234 75.3387 296.234 77.2673C296.234 79.1772 294.76 80.6595 292.627 80.6595H290.096V73.875ZM292.627 79.573C294.052 79.573 294.983 78.6133 294.983 77.2673C294.983 75.9399 294.052 74.9616 292.627 74.9616H291.289V79.5748H292.627V79.573Z" fill="white"/>
<path opacity="0.6" d="M303.644 73.875H308.676V74.941H304.835V76.7053H308.239V77.7713H304.835V79.5935H308.725V80.6595H303.644V73.875Z" fill="white"/>
<path opacity="0.6" d="M316.104 73.875H321.155V74.9597H317.295V76.8099H320.718V77.8946H317.295V80.6558H316.104V73.875Z" fill="white"/>
<path opacity="0.6" d="M328.129 77.2668C328.129 75.3681 329.584 73.7588 331.63 73.7588C332.812 73.7588 333.541 74.0874 334.238 74.6792L333.481 75.5809C332.958 75.1347 332.444 74.8547 331.581 74.8547C330.33 74.8547 329.381 75.9506 329.381 77.2687C329.381 78.6651 330.302 79.692 331.69 79.692C332.33 79.692 332.911 79.4885 333.328 79.1786V77.909H331.592V76.8729H334.482V79.7218C333.814 80.2931 332.853 80.7785 331.65 80.7785C329.524 80.7748 328.129 79.2626 328.129 77.2668Z" fill="white"/>
<path opacity="0.6" d="M286.687 89.1035H287.878V91.9245H291.118V89.1035H292.311V95.888H291.118V93.0297H287.878V95.888H286.687V89.1035Z" fill="white"/>
<path opacity="0.6" d="M300.088 89.1035H301.28V95.888H300.088V89.1035Z" fill="white"/>
<path opacity="0.6" d="M308.391 94.8892L309.177 94.0845C309.575 94.5886 309.973 94.8799 310.545 94.8799C311.185 94.8799 311.621 94.4542 311.621 93.5525V89.1035H312.842V93.5805C312.842 94.3851 312.609 94.9863 312.213 95.384C311.815 95.7816 311.243 95.9851 310.563 95.9851C309.515 95.9851 308.835 95.4997 308.391 94.8892Z" fill="white"/>
<path opacity="0.6" d="M320.443 89.1035H321.635V92.5144L324.865 89.1035H326.33L323.507 92.0216L326.455 95.888H325.011L322.693 92.8356L321.635 93.9202V95.888H320.443V89.1035Z" fill="white"/>
<path opacity="0.6" d="M333.438 89.1035H334.63V94.8015H338.198V95.8862H333.437V89.1035H333.438Z" fill="white"/>
<path opacity="0.6" d="M288.719 104.332H289.989L292.055 107.539L294.121 104.332H295.392V111.117H294.198V106.251L292.055 109.449H292.016L289.892 106.27V111.117H288.719V104.332Z" fill="white"/>
<path opacity="0.6" d="M303.1 104.332H304.206L307.843 109.022V104.332H309.016V111.117H308.016L304.273 106.29V111.117H303.1V104.332Z" fill="white"/>
<path opacity="0.6" d="M316.423 107.724C316.423 105.814 317.897 104.216 319.982 104.216C322.067 104.216 323.522 105.796 323.522 107.724C323.522 109.634 322.048 111.232 319.963 111.232C317.878 111.232 316.423 109.653 316.423 107.724ZM322.27 107.724C322.27 106.406 321.31 105.31 319.963 105.31C318.616 105.31 317.675 106.386 317.675 107.724C317.675 109.042 318.635 110.138 319.984 110.138C321.33 110.136 322.27 109.061 322.27 107.724Z" fill="white"/>
<path opacity="0.6" d="M330.932 104.332H333.609C335.189 104.332 336.189 105.234 336.189 106.619C336.189 108.141 334.967 108.936 333.472 108.936H332.124V111.117H330.932V104.332ZM333.512 107.859C334.414 107.859 334.976 107.355 334.976 106.628C334.976 105.833 334.404 105.417 333.512 105.417H332.125V107.859H333.512Z" fill="white"/>
<path opacity="0.6" d="M295.551 125.821C294.979 126.228 294.28 126.461 293.484 126.461C291.4 126.461 289.944 124.882 289.944 122.953C289.944 121.043 291.418 119.445 293.503 119.445C295.588 119.445 297.043 121.025 297.043 122.953C297.043 123.719 296.8 124.445 296.354 125.037L297.129 125.696L296.363 126.549L295.551 125.821ZM294.667 125.035L293.503 124.047L294.269 123.175L295.442 124.242C295.676 123.883 295.792 123.446 295.792 122.953C295.792 121.635 294.831 120.539 293.484 120.539C292.138 120.539 291.196 121.615 291.196 122.953C291.196 124.271 292.156 125.367 293.505 125.367C293.95 125.365 294.348 125.238 294.667 125.035Z" fill="white"/>
<path opacity="0.6" d="M304.452 119.559H307.479C309.068 119.559 310 120.412 310 121.721C310 122.836 309.332 123.504 308.381 123.775L310.213 126.344H308.807L307.12 123.978H305.646V126.344H304.454V119.559H304.452ZM307.391 122.923C308.244 122.923 308.788 122.477 308.788 121.77C308.788 121.043 308.265 120.646 307.381 120.646H305.646V122.923H307.391Z" fill="white"/>
<path opacity="0.6" d="M316.973 125.356L317.69 124.503C318.34 125.065 318.99 125.384 319.833 125.384C320.571 125.384 321.036 125.044 321.036 124.512C321.036 124.027 320.765 123.765 319.504 123.465C318.058 123.125 317.244 122.699 317.244 121.43C317.244 120.267 318.213 119.462 319.562 119.462C320.55 119.462 321.337 119.762 322.026 120.315L321.385 121.217C320.774 120.761 320.163 120.519 319.543 120.519C318.845 120.519 318.437 120.877 318.437 121.342C318.437 121.865 318.747 122.098 320.048 122.408C321.482 122.757 322.23 123.271 322.23 124.415C322.23 125.684 321.23 126.441 319.805 126.441C318.766 126.441 317.787 126.082 316.973 125.356Z" fill="white"/>
<path opacity="0.6" d="M331.265 120.664H329.113V119.559H334.622V120.664H332.47V126.344H331.267V120.664H331.265Z" fill="white"/>
<path opacity="0.6" d="M294.274 138.693V134.788H295.468V138.645C295.468 139.905 296.118 140.583 297.185 140.583C298.242 140.583 298.892 139.942 298.892 138.693V134.788H300.084V138.635C300.084 140.661 298.939 141.679 297.164 141.679C295.399 141.679 294.274 140.661 294.274 138.693Z" fill="white"/>
<path opacity="0.6" d="M307.105 134.788H308.424L310.47 140.002L312.506 134.788H313.795L310.972 141.621H309.924L307.105 134.788Z" fill="white"/>
<path opacity="0.6" d="M320.4 134.788H321.689L323.309 139.817L324.977 134.769H325.986L327.654 139.817L329.274 134.788H330.526L328.159 141.621H327.131L325.463 136.746L323.795 141.621H322.767L320.4 134.788Z" fill="white"/>
<path opacity="0.6" d="M298.648 153.351L296.272 150.017H297.679L299.366 152.449L301.062 150.017H302.429L300.062 153.33L302.526 156.799H301.12L299.336 154.23L297.542 156.799H296.175L298.648 153.351Z" fill="white"/>
<path opacity="0.6" d="M311.721 154.126L309.025 150.017H310.432L312.332 153.021L314.252 150.017H315.62L312.924 154.096V156.799H311.721V154.126Z" fill="white"/>
<path opacity="0.6" d="M322.389 155.918L326.394 151.071H322.516V150.015H327.946V150.896L323.941 155.743H327.946V156.799H322.389V155.918Z" fill="white"/>
</g>
<path d="M0.599669 310.013H509.4C509.729 310.013 510 309.744 510 309.414V309.158C510 308.829 509.731 308.559 509.4 308.559H0.599669C0.270879 308.559 0 308.827 0 309.158V309.414C0 309.742 0.269011 310.013 0.599669 310.013Z" fill="#2E3552"/>
<path d="M429.446 196.579L428.24 196.773L430.524 210.971L431.73 210.778L429.446 196.579Z" fill="#B5453C"/>
<path d="M428.454 194.183L428.254 196.78L429.459 196.586L428.454 194.183Z" fill="#F9DDBF"/>
<path d="M442.533 198L441.332 197.777L438.704 211.917L439.906 212.14L442.533 198Z" fill="#B5453C"/>
<path d="M442.381 195.408L441.318 197.785L442.52 198.009L442.381 195.408Z" fill="#EFCBAB"/>
<path d="M441.009 193.853L439.81 193.63L437.182 207.77L438.381 207.992L441.009 193.853Z" fill="#B5453C"/>
<path d="M440.859 191.26L439.796 193.638L440.997 193.86L440.859 191.26Z" fill="#EFCBAB"/>
<path d="M442.391 202.581H432.773V216.432H442.391V202.581Z" fill="#ED7D2B"/>
<path d="M437.582 202.581H427.965V216.431H437.582V202.581Z" fill="#F99746"/>
<path d="M83.3132 198.987C83.3132 198.987 88.0545 193.459 83.6065 189.948C83.6065 189.948 80.356 187.982 77.707 188.14C77.707 188.14 81.4619 194.432 80.2476 195.059C79.0334 195.685 76.5693 187.746 76.5693 187.746C76.5693 187.746 69.1734 187.03 66.7953 188.172C66.7953 188.172 73.117 193.342 71.7869 193.65C70.4549 193.958 63.6269 188.883 63.6269 188.883C63.6269 188.883 56.7429 190.054 57.1109 194.251C57.4771 198.448 59.8496 199.743 60.892 199.631C61.9344 199.519 68.032 197.193 68.1646 198.046C68.2973 198.9 64.6264 201.689 62.0559 201.82C62.0559 201.82 66.9092 207.168 70.1336 205.624C73.358 204.08 73.6345 201.635 75.6446 200.716C77.6547 199.798 79.3715 199.801 78.542 200.737C77.7126 201.672 74.0735 202.581 72.9246 204.614C71.7757 206.647 70.7426 208.018 74.081 207.516C77.4174 207.013 82.8425 204.573 83.0797 201.78C83.3132 198.987 83.3132 198.987 83.3132 198.987Z" fill="#A2B8AD"/>
<path d="M60.4902 194.363C60.4902 194.363 79.1846 193.642 83.3131 198.985C83.3131 198.985 84.2266 201.718 87.0363 204.207L87.4734 205.4C87.4734 205.4 84.2341 201.987 83.074 201.78C83.0759 201.78 84.8879 195.16 60.4902 194.363Z" fill="#A2B8AD"/>
<path d="M87.0364 204.207C87.0364 204.207 91.0491 207.174 91.3275 212.472L90.5989 212.538C90.5989 212.538 89.3174 207.058 87.0009 204.915C84.6844 202.773 87.0364 204.207 87.0364 204.207Z" fill="#A2B8AD"/>
<path d="M99.8905 192.034C99.8905 192.034 92.3489 187.813 95.8684 182.085C95.8684 182.085 98.6837 178.568 101.701 177.662C101.701 177.662 100.092 186.205 101.701 186.405C103.309 186.607 102.807 176.757 102.807 176.757C102.807 176.757 110.752 172.937 113.87 173.239C113.87 173.239 108.942 181.581 110.552 181.379C112.16 181.178 117.692 172.735 117.692 172.735C117.692 172.735 125.837 171.229 127.145 176.053C128.452 180.877 126.339 183.289 125.133 183.592C123.926 183.892 116.182 183.793 116.382 184.798C116.584 185.802 121.813 187.412 124.729 186.506C124.729 186.506 121.51 194.446 117.287 194.045C113.063 193.643 111.755 191.03 109.141 190.828C106.526 190.626 104.615 191.33 105.923 192.034C107.23 192.738 111.654 192.264 113.767 194.06C115.878 195.854 117.589 196.959 113.666 197.764C109.743 198.568 102.704 198.066 101.295 195.049C99.8905 192.034 99.8905 192.034 99.8905 192.034Z" fill="#A8D29F"/>
<path d="M123.424 177.562C123.424 177.562 102.305 184.396 99.8909 192.034C99.8909 192.034 99.9918 195.451 97.8789 199.371V200.88C97.8789 200.88 100.091 195.753 101.298 195.051C101.299 195.049 96.5731 188.416 123.424 177.562Z" fill="#A2B8AD"/>
<path d="M97.8807 199.371C97.8807 199.371 94.6246 204.313 96.4815 210.33L97.3184 210.106C97.3184 210.106 96.5058 203.479 98.2095 200.146C99.9132 196.812 97.8807 199.371 97.8807 199.371Z" fill="#A2B8AD"/>
<path d="M87.8918 186.211C87.8918 186.211 97.834 180.648 93.1936 173.096C93.1936 173.096 89.4816 168.459 85.5044 167.268C85.5044 167.268 87.6247 178.529 85.5044 178.794C83.3841 179.059 84.0454 166.076 84.0454 166.076C84.0454 166.076 73.5726 161.041 69.4628 161.439C69.4628 161.439 75.9582 172.435 73.8379 172.17C71.7176 171.905 64.4263 160.776 64.4263 160.776C64.4263 160.776 53.6883 158.79 51.9659 165.149C50.2416 171.507 53.027 174.687 54.6168 175.084C56.2084 175.482 66.4159 175.35 66.1506 176.675C65.8853 178.001 58.9919 180.12 55.1473 178.927C55.1473 178.927 59.3898 189.393 64.9569 188.863C70.5239 188.332 72.2481 184.888 75.6948 184.623C79.1415 184.358 81.6598 185.285 79.9374 186.213C78.2149 187.141 72.3808 186.518 69.5973 188.883C66.8138 191.249 64.5589 192.705 69.7299 193.765C74.9009 194.826 84.1799 194.163 86.0349 190.188C87.8918 186.211 87.8918 186.211 87.8918 186.211Z" fill="#A8D29F"/>
<path d="M56.8711 167.135C56.8711 167.135 84.7099 176.143 87.8913 186.213C87.8913 186.213 87.7587 190.718 90.5422 195.884V197.87C90.5422 197.87 87.626 191.114 86.0344 190.186C86.0344 190.186 92.2665 181.443 56.8711 167.135Z" fill="#A2B8AD"/>
<path d="M90.5425 195.884C90.5425 195.884 94.8354 202.4 92.3882 210.331L91.2841 210.034C91.2841 210.034 92.3564 201.298 90.1109 196.905C87.8636 192.511 90.5425 195.884 90.5425 195.884Z" fill="#A2B8AD"/>
<path d="M68.751 208.066C68.751 218.816 77.4714 227.529 88.2262 227.529C90.4717 227.529 92.6294 227.15 94.6357 226.45C102.243 223.801 107.701 216.57 107.701 208.066H68.751Z" fill="#ED7D2B"/>
<path d="M81.5703 208.066C81.5703 215.358 83.3189 222.785 89.2576 226.119C90.2459 226.674 93.5506 226.073 94.636 226.452C102.243 223.802 107.702 216.572 107.702 208.068H81.5703V208.066Z" fill="#F99746"/>
<path d="M68.4824 228.52H107.971C107.971 227.857 107.702 227.256 107.267 226.821C106.831 226.386 106.232 226.117 105.567 226.117H70.8848C69.5585 226.117 68.4824 227.193 68.4824 228.52Z" fill="#ED7D2B"/>
<path d="M86.9844 228.52H107.971C107.971 227.857 107.702 227.256 107.267 226.821C106.831 226.386 106.232 226.117 105.567 226.117H89.3849C88.0604 226.117 86.9844 227.193 86.9844 228.52Z" fill="#F99746"/>
<path d="M68.3089 208.661H108.343V208.064H68.3089V208.661Z" fill="#B5453C"/>
</svg>
